<svg xmlns="http://www.w3.org/2000/svg" viewBox="0 0 64 64"><path d="m42.74 18.6h-20.43l-6.4 19.4 16.47 11.99 16.58-11.99z" fill="#7aba7a"/><path d="m13.95 37.56s6.53-19.79 6.53-19.79c-.92-1.27-5.12-7.09-5.96-8.25 0 0-9.99 13.36-9.99 13.36-.13 .18-.2 .39-.2 .61l.27 16.6s8.65-2.34 9.35-2.53z" fill="#5d8a5d"/><path d="m5.2 42s9.57 13.24 9.57 13.24c.13 .17 .3 .3 .5 .37l15.41 5.09c.09-1.37 .56-7.49 .66-8.98 0 0-16.81-12.25-16.81-12.25s-8.85 2.39-9.33 2.53z" fill="#4a6a4a"/><path d="m50.34 39.46-17 12.31c-.11 1.58-.56 7.51-.66 8.99 0 0 16.12-4.98 16.12-4.98 .21-.06 .39-.2 .52-.37l9.77-13.75c-.38-.09-8.75-2.2-8.75-2.2z" fill="#6a9a6a"/><path d="m22.1 16.6h20.84c.84-1.29 4.57-6.9 5.33-8.09 0 0-15.67-5.45-15.67-5.45-.21-.08-.44-.08-.65-.01l-15.8 5.31c.26 .36 5.95 8.24 5.95 8.24z" fill="#8fbc8f"/><path d="m44.58 17.75 6.34 19.8c1.48 .37 7.37 1.85 8.75 2.19 0 0-.01-16.23-.01-16.23 0-.21-.07-.41-.19-.58l-9.58-13.24c-.77 1.2-4.47 6.76-5.31 8.06z" fill="#6a9a6a"/></svg>